# xmcd
#
# Track frame offsets:
#	150
#	11165
#	21012
#	30617
#	39314
#	48200
#	58093
#	66483
#	74996
#	87243
#	99003
#	112285
#
# Disc length: 1647 seconds
#
# Revision: 1
# Processed by: cddbd v1.5.2PL0 Copyright (c) Steve Scherf et al.
# Submitted via: audiograbber 1.83.01
#
DISCID=a5066d0c
DTITLE=Johnny Cash - The Original Sun Sound of Johnny Cash
DYEAR=1964
DGENRE=Country
TTITLE0=Belshazzar
TTITLE1=Born to Lose
TTITLE2=New Mexico
TTITLE3=I Forgot to Remember to Forget
TTITLE4=Two Timing Woman
TTITLE5=Story Of a Broken Heart
TTITLE6=Always Alone
TTITLE7=Country Boy
TTITLE8=Goodnight Irene
TTITLE9=Wide Open Road
TTITLE10=Thanks a Lot
TTITLE11=Big River
EXTD=
EXTT0=
EXTT1=
EXTT2=
EXTT3=
EXTT4=
EXTT5=
EXTT6=
EXTT7=
EXTT8=
EXTT9=
EXTT10=
EXTT11=
PLAYORDER=
